<svg width="29" height="29" viewBox="0 0 29 29" fill="none" xmlns="http://www.w3.org/2000/svg">
<path d="M15.8549 6.54834C14.8692 6.54834 13.9239 6.97296 13.2269 7.72878C12.53 8.4846 12.1384 9.50972 12.1384 10.5786V12.8225H10.1496C10.0499 12.8225 9.96875 12.9096 9.96875 13.0186V15.9813C9.96875 16.0894 10.0491 16.1774 10.1496 16.1774H12.1384V22.2555C12.1384 22.3636 12.2188 22.4516 12.3192 22.4516H15.0513C15.151 22.4516 15.2321 22.3644 15.2321 22.2555V16.1774H17.2387C17.3214 16.1774 17.3937 16.1164 17.4138 16.0293L18.0969 13.0665C18.1036 13.0376 18.1041 13.0074 18.0985 12.9782C18.0928 12.949 18.0811 12.9216 18.0642 12.8981C18.0473 12.8746 18.0257 12.8555 18.001 12.8424C17.9763 12.8293 17.9492 12.8225 17.9217 12.8225H15.2321V10.5786C15.2321 10.4899 15.2483 10.4021 15.2795 10.3202C15.3108 10.2382 15.3567 10.1638 15.4145 10.1011C15.4724 10.0384 15.541 9.98861 15.6166 9.95467C15.6921 9.92074 15.7731 9.90327 15.8549 9.90327H17.9442C18.0438 9.90327 18.125 9.81613 18.125 9.7072V6.74441C18.125 6.63635 18.0446 6.54834 17.9442 6.54834H15.8549Z" fill="#36373A"/>
<circle cx="14.5" cy="14.5" r="14" stroke="#36373A"/>
</svg>
