<svg width="25" height="25" viewBox="0 0 25 25" fill="none" xmlns="http://www.w3.org/2000/svg">
<circle cx="12.5" cy="12.5" r="11.5" stroke="white" stroke-width="2"/>
<path d="M18.5551 19.3548C16.9175 19.3548 15.3214 18.9898 13.7666 18.2596C12.2113 17.5299 10.834 16.5652 9.63466 15.3653C8.43481 14.166 7.47005 12.7887 6.74039 11.2334C6.01023 9.67861 5.64514 8.08245 5.64514 6.4449C5.64514 6.21641 5.72131 6.026 5.87364 5.87367C6.02597 5.72134 6.21638 5.64517 6.44487 5.64517H9.52955C9.70727 5.64517 9.86595 5.7023 10.0056 5.81654C10.1452 5.93079 10.2277 6.07677 10.2531 6.25449L10.7482 8.92026C10.7736 9.09798 10.7705 9.2597 10.739 9.40543C10.7071 9.55167 10.6339 9.68191 10.5197 9.79616L8.69174 11.6622C9.22489 12.5762 9.89133 13.433 10.6911 14.2328C11.4908 15.0325 12.373 15.7243 13.3378 16.3083L15.1277 14.5184C15.2419 14.4041 15.3912 14.3183 15.5755 14.2609C15.7593 14.2041 15.9401 14.1883 16.1178 14.2137L18.7455 14.7469C18.9232 14.785 19.0692 14.8705 19.1834 15.0036C19.2977 15.1371 19.3548 15.2927 19.3548 15.4704V18.5551C19.3548 18.7836 19.2787 18.974 19.1263 19.1264C18.974 19.2787 18.7836 19.3548 18.5551 19.3548Z" fill="white"/>
</svg>
