<svg width="25" height="25" viewBox="0 0 25 25" fill="none" xmlns="http://www.w3.org/2000/svg">
<circle cx="12.5" cy="12.5" r="12" stroke="white"/>
<path d="M19.3188 9.08048C19.2804 8.98876 19.2158 8.9105 19.1332 8.85557C19.0506 8.80064 18.9536 8.77149 18.8545 8.77181H16.9472C16.7183 8.37086 16.4005 8.02819 16.0185 7.77034C15.6366 7.51249 15.2006 7.34637 14.7444 7.28485C14.2882 7.22334 13.824 7.26807 13.3878 7.41559C12.9516 7.56312 12.5551 7.80947 12.2289 8.13556C11.9434 8.41511 11.7164 8.74915 11.5612 9.11804C11.406 9.48693 11.3259 9.88323 11.3255 10.2837V10.6679C8.77185 10.0002 6.68253 7.93398 6.66371 7.90878C6.59808 7.84396 6.51595 7.7985 6.42632 7.77739C6.33668 7.75628 6.24299 7.76033 6.1555 7.7891C6.06828 7.81696 5.99017 7.86796 5.92943 7.93671C5.8687 8.00545 5.82757 8.08939 5.81041 8.17966C5.26456 11.216 6.17432 13.2507 7.03389 14.4224C7.46502 15.0149 7.98828 15.5338 8.58362 15.9594C7.62366 17.0492 6.14295 17.6162 6.1304 17.6225C6.05959 17.6489 5.99562 17.6909 5.94326 17.7456C5.89089 17.8002 5.85148 17.866 5.82796 17.938C5.80444 18.0101 5.79742 18.0866 5.80742 18.1617C5.81742 18.2369 5.84418 18.3088 5.8857 18.3721C5.9359 18.4477 6.12413 18.6934 6.58214 18.9265C7.1531 19.2099 7.906 19.3548 8.81577 19.3548C13.2391 19.3548 16.9409 15.9342 17.3173 11.531L19.2121 9.63483C19.2802 9.56196 19.3264 9.47123 19.3453 9.37313C19.3641 9.27503 19.355 9.17356 19.3188 9.08048ZM16.4766 10.9514C16.3891 11.0385 16.3376 11.1554 16.3323 11.279C16.075 15.2413 12.7748 18.3469 8.81577 18.3469C8.1507 18.3469 7.68641 18.2587 7.36015 18.1516C8.08168 17.7611 9.08556 17.0807 9.73808 16.1043C9.77595 16.0452 9.8011 15.9788 9.81191 15.9094C9.82271 15.84 9.81893 15.769 9.80082 15.7012C9.78255 15.6326 9.75024 15.5686 9.70595 15.5133C9.66165 15.458 9.60635 15.4125 9.54357 15.3799C9.5373 15.3736 8.60872 14.8885 7.81189 13.7861C6.9084 12.5389 6.52568 11.0207 6.67626 9.26946C7.66758 10.0884 9.5624 11.4239 11.7458 11.7892C11.8179 11.8009 11.8917 11.7967 11.9621 11.7772C12.0324 11.7576 12.0978 11.723 12.1536 11.6758C12.2083 11.6279 12.2522 11.5688 12.2824 11.5026C12.3127 11.4364 12.3287 11.3644 12.3293 11.2916V10.2837C12.3303 9.82129 12.4895 9.37329 12.7803 9.01477C13.0711 8.65625 13.4759 8.40901 13.9267 8.3145C14.3775 8.21999 14.847 8.28395 15.2564 8.49567C15.6658 8.70738 15.9903 9.05397 16.1754 9.47734C16.2154 9.56739 16.2806 9.64388 16.363 9.69754C16.4454 9.7512 16.5415 9.77975 16.6397 9.77971H17.6436L16.4766 10.9514Z" fill="white"/>
</svg>
