<svg width="25" height="25" viewBox="0 0 25 25" fill="none" xmlns="http://www.w3.org/2000/svg">
<path d="M13.668 5.64514C12.8183 5.64514 12.0034 6.01119 11.4025 6.66276C10.8017 7.31433 10.4641 8.19805 10.4641 9.11951V11.0539H8.74962C8.66372 11.0539 8.59375 11.129 8.59375 11.2229V13.777C8.59375 13.8702 8.66302 13.9461 8.74962 13.9461H10.4641V19.1858C10.4641 19.2789 10.5334 19.3548 10.62 19.3548H12.9753C13.0612 19.3548 13.1312 19.2797 13.1312 19.1858V13.9461H14.8609C14.9323 13.9461 14.9946 13.8935 15.0119 13.8184L15.6008 11.2642C15.6065 11.2393 15.607 11.2133 15.6021 11.1881C15.5973 11.163 15.5872 11.1394 15.5726 11.1191C15.558 11.0988 15.5394 11.0824 15.5181 11.0711C15.4968 11.0598 15.4734 11.0539 15.4497 11.0539H13.1312V9.11951C13.1312 9.04306 13.145 8.96735 13.172 8.89672C13.199 8.82608 13.2385 8.7619 13.2884 8.70784C13.3383 8.65378 13.3974 8.61089 13.4626 8.58164C13.5277 8.55238 13.5975 8.53732 13.668 8.53732H15.4691C15.555 8.53732 15.625 8.4622 15.625 8.3683V5.81416C15.625 5.72101 15.5557 5.64514 15.4691 5.64514H13.668Z" fill="white"/>
<circle cx="12.5" cy="12.5" r="12" stroke="white"/>
</svg>
