<svg width="25" height="25" viewBox="0 0 25 25" fill="none" xmlns="http://www.w3.org/2000/svg">
<path d="M19.9829 9.02073C19.8939 8.67974 19.7198 8.36884 19.478 8.11914C19.2361 7.86944 18.9349 7.6897 18.6046 7.59792C17.3881 7.25806 12.5 7.25806 12.5 7.25806C12.5 7.25806 7.61187 7.25806 6.39542 7.59792C6.0651 7.6897 5.76393 7.86944 5.52205 8.11914C5.28016 8.36884 5.10605 8.67974 5.01714 9.02073C4.79 10.3014 4.67978 11.6013 4.68792 12.9032C4.67978 14.2052 4.79 15.505 5.01714 16.7857C5.10605 17.1267 5.28016 17.4376 5.52205 17.6873C5.76393 17.937 6.0651 18.1167 6.39542 18.2085C7.61187 18.5484 12.5 18.5484 12.5 18.5484C12.5 18.5484 17.3881 18.5484 18.6046 18.2085C18.9349 18.1167 19.2361 17.937 19.478 17.6873C19.7198 17.4376 19.8939 17.1267 19.9829 16.7857C20.21 15.505 20.3202 14.2052 20.3121 12.9032C20.3202 11.6013 20.21 10.3014 19.9829 9.02073ZM10.9376 15.3226V10.4839L14.9943 12.9032L10.9376 15.3226Z" fill="white"/>
<circle cx="12.5" cy="12.5" r="12" stroke="white"/>
</svg>
