<svg width="29" height="29" viewBox="0 0 29 29" fill="none" xmlns="http://www.w3.org/2000/svg">
<circle cx="14.5" cy="14.5" r="14" stroke="#36373A"/>
<path fill-rule="evenodd" clip-rule="evenodd" d="M13.2906 10.6505H15.8755V11.9381C16.2479 11.1975 17.2028 10.5322 18.6373 10.5322C21.3871 10.5322 22.04 12.0063 22.04 14.7109V19.72H19.256V15.3269C19.256 13.7866 18.8836 12.918 17.9357 12.918C16.6209 12.918 16.0746 13.8542 16.0746 15.3262V19.72H13.2906V10.6505ZM8.51672 19.6017H11.3007V10.5322H8.51672V19.6017ZM11.6995 7.57485C11.6996 7.8082 11.6533 8.03924 11.5634 8.25455C11.4734 8.46986 11.3415 8.66514 11.1754 8.82904C10.8388 9.16356 10.3833 9.3508 9.90872 9.34965C9.43501 9.34933 8.98047 9.16256 8.64339 8.82974C8.47789 8.66528 8.34646 8.46978 8.25665 8.25445C8.16684 8.03911 8.1204 7.80817 8.12 7.57485C8.12 7.10366 8.30792 6.65265 8.64408 6.31996C8.98087 5.98669 9.4356 5.79984 9.90941 5.80005C10.3841 5.80005 10.8393 5.98727 11.1754 6.31996C11.5109 6.65265 11.6995 7.10366 11.6995 7.57485Z" fill="#36373A"/>
</svg>
