<svg width="64" height="53" viewBox="0 0 64 53" fill="none" xmlns="http://www.w3.org/2000/svg">
<path fill-rule="evenodd" clip-rule="evenodd" d="M37.8182 11.6364C37.0467 11.6364 36.3067 11.9428 35.7612 12.4884C35.2156 13.034 34.9091 13.7739 34.9091 14.5454V37.8182C34.9091 38.5897 35.2156 39.3297 35.7612 39.8752C36.3067 40.4208 37.0467 40.7273 37.8182 40.7273H49.4546C50.2261 40.7273 50.9661 40.4208 51.5116 39.8752C52.0572 39.3297 52.3637 38.5897 52.3637 37.8182V14.5454C52.3637 13.7739 52.0572 13.034 51.5116 12.4884C50.9661 11.9428 50.2261 11.6364 49.4546 11.6364H37.8182ZM46.5455 17.4545H40.7273V34.9091H46.5455V17.4545Z" fill="#1A88CB"/>
<path d="M14.5454 11.6364C13.7739 11.6364 13.034 11.9428 12.4884 12.4884C11.9428 13.034 11.6364 13.7739 11.6364 14.5454C11.6364 15.317 11.9428 16.0569 12.4884 16.6025C13.034 17.148 13.7739 17.4545 14.5454 17.4545H26.1818C26.9533 17.4545 27.6933 17.148 28.2388 16.6025C28.7844 16.0569 29.0909 15.317 29.0909 14.5454C29.0909 13.7739 28.7844 13.034 28.2388 12.4884C27.6933 11.9428 26.9533 11.6364 26.1818 11.6364H14.5454ZM14.5454 23.2727C13.7739 23.2727 13.034 23.5792 12.4884 24.1248C11.9428 24.6703 11.6364 25.4103 11.6364 26.1818C11.6364 26.9533 11.9428 27.6933 12.4884 28.2388C13.034 28.7844 13.7739 29.0909 14.5454 29.0909H26.1818C26.9533 29.0909 27.6933 28.7844 28.2388 28.2388C28.7844 27.6933 29.0909 26.9533 29.0909 26.1818C29.0909 25.4103 28.7844 24.6703 28.2388 24.1248C27.6933 23.5792 26.9533 23.2727 26.1818 23.2727H14.5454ZM11.6364 37.8182C11.6364 37.0466 11.9428 36.3067 12.4884 35.7611C13.034 35.2156 13.7739 34.9091 14.5454 34.9091H26.1818C26.9533 34.9091 27.6933 35.2156 28.2388 35.7611C28.7844 36.3067 29.0909 37.0466 29.0909 37.8182C29.0909 38.5897 28.7844 39.3297 28.2388 39.8752C27.6933 40.4208 26.9533 40.7273 26.1818 40.7273H14.5454C13.7739 40.7273 13.034 40.4208 12.4884 39.8752C11.9428 39.3297 11.6364 38.5897 11.6364 37.8182Z" fill="#1A88CB"/>
<path fill-rule="evenodd" clip-rule="evenodd" d="M8.72727 0C6.41266 0 4.19284 0.919478 2.55616 2.55616C0.919478 4.19284 0 6.41266 0 8.72727V43.6364C0 45.951 0.919478 48.1708 2.55616 49.8075C4.19284 51.4442 6.41266 52.3636 8.72727 52.3636H55.2727C57.5873 52.3636 59.8072 51.4442 61.4438 49.8075C63.0805 48.1708 64 45.951 64 43.6364V8.72727C64 6.41266 63.0805 4.19284 61.4438 2.55616C59.8072 0.919478 57.5873 0 55.2727 0H8.72727ZM55.2727 5.81818H8.72727C7.95573 5.81818 7.2158 6.12468 6.67023 6.67024C6.12467 7.2158 5.81818 7.95573 5.81818 8.72727V43.6364C5.81818 44.4079 6.12467 45.1478 6.67023 45.6934C7.2158 46.239 7.95573 46.5455 8.72727 46.5455H55.2727C56.0443 46.5455 56.7842 46.239 57.3298 45.6934C57.8753 45.1478 58.1818 44.4079 58.1818 43.6364V8.72727C58.1818 7.95573 57.8753 7.2158 57.3298 6.67024C56.7842 6.12468 56.0443 5.81818 55.2727 5.81818Z" fill="#1A88CB"/>
</svg>
