<svg width="56" height="52" viewBox="0 0 56 52" fill="none" xmlns="http://www.w3.org/2000/svg">
<path d="M26 48C18.8 48 11.8 44.4 7.6 38H18V34H2V50H6V42.6C11 48.6 18.2 52 26 52V48ZM56 40V36H51.8C51.6 34.8 51 33.6 50.4 32.4L53.4 29.4L50.6 26.6L47.6 29.6C46.6 29 45.4 28.4 44 28.2V24H40V28.2C38.8 28.4 37.6 29 36.4 29.6L33.4 26.6L30.6 29.4L33.6 32.4C33 33.4 32.4 34.6 32.2 36H28V40H32.2C32.4 41.2 33 42.4 33.6 43.6L30.6 46.6L33.4 49.4L36.4 46.4C37.4 47 38.6 47.6 40 47.8V52H44V47.8C45.2 47.6 46.4 47 47.6 46.4L50.6 49.4L53.4 46.6L50.4 43.6C51 42.6 51.6 41.4 51.8 40H56ZM42 44C38.6 44 36 41.4 36 38C36 34.6 38.6 32 42 32C45.4 32 48 34.6 48 38C48 41.4 45.4 44 42 44ZM34 14H44.4C37.8 3.8 24.2 1 14 7.6C7.8 11.6 4 18.6 4 26H0C0 11.6 11.6 0 26 0C33.8 0 41 3.4 46 9.4V2H50V18H34V14Z" fill="#1A88CB"/>
</svg>
