<svg width="29" height="29" viewBox="0 0 29 29" fill="none" xmlns="http://www.w3.org/2000/svg">
<circle cx="14.5" cy="14.5" r="14" stroke="#36373A"/>
<path d="M22.4098 10.5333C22.3653 10.4269 22.2904 10.3361 22.1945 10.2724C22.0987 10.2087 21.9862 10.1749 21.8712 10.1753H19.6587C19.3932 9.71016 19.0246 9.31267 18.5815 9.01356C18.1384 8.71445 17.6327 8.52176 17.1035 8.4504C16.5743 8.37904 16.0359 8.43093 15.5299 8.60205C15.0239 8.77318 14.5639 9.05895 14.1856 9.43722C13.8543 9.7615 13.591 10.149 13.411 10.5769C13.231 11.0048 13.138 11.4645 13.1375 11.929V12.3748C10.1753 11.6002 7.75174 9.20339 7.72991 9.17416C7.65377 9.09896 7.55851 9.04623 7.45453 9.02174C7.35056 8.99725 7.24188 9.00195 7.14038 9.03532C7.03921 9.06764 6.94861 9.1268 6.87815 9.20655C6.80769 9.28629 6.75999 9.38366 6.74008 9.48837C6.10689 13.0105 7.16221 15.3708 8.15931 16.7299C8.65943 17.4172 9.26641 18.0192 9.957 18.5129C8.84345 19.7771 7.12582 20.4347 7.11127 20.4421C7.02913 20.4726 6.95493 20.5214 6.89418 20.5848C6.83344 20.6482 6.78772 20.7245 6.76044 20.8081C6.73316 20.8917 6.72501 20.9804 6.73661 21.0675C6.74821 21.1547 6.77925 21.2382 6.82742 21.3116C6.88565 21.3993 7.10399 21.6843 7.63529 21.9547C8.2976 22.2835 9.17097 22.4516 10.2263 22.4516C15.3573 22.4516 19.6514 18.4837 20.0881 13.3759L22.2861 11.1764C22.3651 11.0918 22.4186 10.9866 22.4405 10.8728C22.4624 10.759 22.4518 10.6413 22.4098 10.5333ZM19.1128 12.7036C19.0114 12.8046 18.9516 12.9403 18.9454 13.0836C18.647 17.6799 14.8188 21.2824 10.2263 21.2824C9.45481 21.2824 8.91623 21.1801 8.53777 21.0559C9.37475 20.6028 10.5392 19.8136 11.2962 18.681C11.3401 18.6124 11.3693 18.5354 11.3818 18.4549C11.3943 18.3743 11.39 18.2921 11.369 18.2133C11.3478 18.1338 11.3103 18.0596 11.2589 17.9954C11.2075 17.9312 11.1434 17.8785 11.0705 17.8406C11.0633 17.8333 9.98611 17.2707 9.0618 15.9919C8.01375 14.545 7.56979 12.784 7.74446 10.7525C8.8944 11.7025 11.0924 13.2516 13.6252 13.6755C13.7088 13.689 13.7943 13.6842 13.876 13.6615C13.9576 13.6388 14.0334 13.5987 14.0982 13.5439C14.1616 13.4883 14.2125 13.4198 14.2476 13.343C14.2828 13.2661 14.3013 13.1827 14.302 13.0982V11.929C14.3031 11.3927 14.4878 10.873 14.8252 10.4571C15.1625 10.0412 15.632 9.75442 16.155 9.64479C16.6779 9.53515 17.2225 9.60935 17.6974 9.85494C18.1723 10.1005 18.5487 10.5026 18.7635 10.9937C18.8099 11.0981 18.8855 11.1869 18.9811 11.2491C19.0766 11.3114 19.1881 11.3445 19.3021 11.3444H20.4666L19.1128 12.7036Z" fill="#36373A"/>
</svg>
